<svg width="25" height="22" viewBox="0 0 25 22" fill="none" xmlns="http://www.w3.org/2000/svg">
<path d="M0.75 20.7395H23.75M20.3837 20.75V16.0552M1.89997 20.7395V3.92897C1.89997 1.81318 2.94548 0.75 5.02594 0.75H11.5391C13.6196 0.75 14.6545 1.81318 14.6545 3.92897V20.7395M5.76817 6.26578H10.9432M5.76817 10.2131H10.9432M8.32955 20.7395V16.7921M20.4045 9.04474C19.1291 9.04474 18.1045 10.0763 18.1045 11.3605V13.75C18.1045 15.0342 19.1291 16.0658 20.4045 16.0658C21.68 16.0658 22.7045 15.0342 22.7045 13.75V11.3605C22.7045 10.0763 21.68 9.04474 20.4045 9.04474Z" stroke="#1B1B1B" stroke-width="1.5" stroke-miterlimit="10" stroke-linecap="round" stroke-linejoin="round"/>
</svg>
