<svg width="14" height="19" viewBox="0 0 14 19" fill="none" xmlns="http://www.w3.org/2000/svg">
<path fill-rule="evenodd" clip-rule="evenodd" d="M10.3975 16.1301C9.54916 17.0604 8.56116 17.8936 7.45173 18.5675C7.31514 18.6676 7.12998 18.6798 6.97822 18.5826C5.33912 17.54 3.96259 16.2879 2.88048 14.9266C1.38709 13.0537 0.447643 10.9776 0.125895 8.97725C-0.201923 6.94963 0.104648 4.9979 1.1139 3.41192C1.51154 2.78512 2.01996 2.21447 2.63917 1.72123C4.06275 0.587523 5.68819 -0.0119606 7.30907 0.000180841C8.86924 0.0123223 10.4097 0.593593 11.7407 1.80925C12.2081 2.2342 12.6012 2.72138 12.923 3.24953C14.0081 5.03736 14.2418 7.31691 13.7653 9.62682C13.2948 11.9094 12.1262 14.2284 10.3975 16.1255V16.1301ZM6.99946 3.60619C8.92388 3.60619 10.4825 5.16636 10.4825 7.08926C10.4825 9.01368 8.92236 10.5723 6.99946 10.5723C5.07505 10.5723 3.51639 9.01368 3.51639 7.08926C3.51487 5.16484 5.07505 3.60619 6.99946 3.60619Z" fill="url(#paint0_linear_4999_4135)"/>
<defs>
<linearGradient id="paint0_linear_4999_4135" x1="0" y1="0" x2="16.6116" y2="2.72418" gradientUnits="userSpaceOnUse">
<stop stop-color="#416D95"/>
<stop offset="1" stop-color="#74AFAD"/>
</linearGradient>
</defs>
</svg>
